<svg xmlns="http://www.w3.org/2000/svg" aria-hidden="true" style="position:absolute;width:0;height:0;overflow:hidden">
  <defs>
    <symbol id="arrow-left" viewBox="0 0 32 32">
      <path fill="none" stroke-linecap="round" stroke-linejoin="round" stroke-miterlimit="10" stroke-width="1.333" d="m12.759 7.905-8.093 8.093 8.093 8.093M27.333 15.999H4.893"/>
    </symbol>
    <symbol id="arrow-right" viewBox="0 0 32 32">
      <path fill="none" stroke-linecap="round" stroke-linejoin="round" stroke-miterlimit="10" stroke-width="1.333" d="m19.241 7.905 8.093 8.093-8.093 8.093M4.668 15.999h22.44"/>
    </symbol>
    <symbol id="arrow-up-right" viewBox="0 0 32 32">
      <path fill="none" stroke-linecap="round" stroke-linejoin="round" stroke-miterlimit="10" stroke-width="1.714" d="M12.569 7.985h11.446v11.446M7.987 24.012 23.855 8.145"/>
    </symbol>
    <symbol id="arrow-up" viewBox="0 0 32 32">
      <path fill="none" stroke-linecap="round" stroke-linejoin="round" stroke-miterlimit="10" stroke-width="2" d="m7.906 12.76 8.093-8.093 8.093 8.093M16 27.333V4.893"/>
    </symbol>
    <symbol id="arrow-down" viewBox="0 0 36 32">
      <path fill="none" stroke-linecap="round" stroke-linejoin="round" stroke-miterlimit="10" stroke-width="2.964" d="m25.87 18.88-8.093 7.194-8.093-7.194M17.776 5.926v19.947"/>
    </symbol>

    <symbol id="menu" viewBox="0 0 30 32">
      <path stroke-linecap="round" stroke-width="1.882" d="M3.765 9.726h22.588M3.765 16h22.588M3.765 22.274h22.588"/>
    </symbol>

    <symbol id="close" viewBox="0 0 32 32">
      <path fill="none" stroke-linecap="round" stroke-linejoin="round" stroke-width="2.4" d="m9.333 9.333 13.333 13.333m-13.333.001L22.666 9.334"/>
    </symbol>

    <symbol id="openness" viewBox="0 0 32 32">
      <path stroke-linecap="round" stroke-linejoin="round" stroke-width="2" d="M22.667 4H28v5.333M20 12l8-8M9.333 28H4v-5.333M12 20l-8 8M18.693 2.933A13.794 13.794 0 0 0 16 2.666c-7.36 0-13.333 5.973-13.333 13.333 0 .92.093 1.813.267 2.667M13.307 29.067c.867.173 1.773.267 2.693.267 7.36 0 13.333-5.973 13.333-13.333 0-.907-.093-1.8-.267-2.667"/>
    </symbol>
    <symbol id="responsibility" viewBox="0 0 32 32">
      <path stroke-linecap="round" stroke-linejoin="round" stroke-width="2" d="M29.333 16C29.333 8.64 23.36 2.667 16 2.667S2.667 8.64 2.667 16 8.64 29.333 16 29.333"/>
      <path stroke-linecap="round" stroke-linejoin="round" stroke-width="2" d="M10.667 4H12a37.898 37.898 0 0 0 0 24h-1.333M20 4a38.083 38.083 0 0 1 1.947 12"/>
      <path stroke-linecap="round" stroke-linejoin="round" stroke-width="2" d="M4 21.333V20a38.083 38.083 0 0 0 12 1.947M4 11.999a37.898 37.898 0 0 1 24 0"/>
      <path stroke-linecap="round" stroke-linejoin="round" stroke-miterlimit="10" stroke-width="2" d="m25.613 20.987-4.72 4.72a1.64 1.64 0 0 0-.4.787l-.253 1.8c-.093.653.36 1.107 1.013 1.013l1.8-.253c.253-.04.613-.213.787-.4l4.72-4.72c.813-.813 1.2-1.76 0-2.96-1.187-1.187-2.133-.8-2.947.013z"/>
      <path stroke-linecap="round" stroke-linejoin="round" stroke-miterlimit="10" stroke-width="2" d="M24.933 21.667c.4 1.44 1.52 2.56 2.96 2.96"/>
    </symbol>
    <symbol id="innovation" viewBox="0 0 32 32">
      <path stroke-linecap="round" stroke-linejoin="round" stroke-width="2" d="M12.8 26.667h6.4c5.333 0 7.467-2.133 7.467-7.467v-6.4c0-5.333-2.133-7.467-7.467-7.467h-6.4c-5.333 0-7.467 2.133-7.467 7.467v6.4c0 5.333 2.133 7.467 7.467 7.467z"/>
      <path stroke-linecap="round" stroke-linejoin="round" stroke-width="2" d="M14 22.667h4c3.333 0 4.667-1.333 4.667-4.667v-4c0-3.333-1.333-4.667-4.667-4.667h-4c-3.333 0-4.667 1.333-4.667 4.667v4c0 3.333 1.333 4.667 4.667 4.667zM10.68 5.333V2.666M16 5.333V2.666M21.333 5.333V2.666M26.667 10.667h2.667M26.667 16h2.667M26.667 21.333h2.667M21.333 26.667v2.667M16.013 26.667v2.667M10.68 26.667v2.667M2.667 10.667h2.667M2.667 16h2.667M2.667 21.333h2.667"/>
      <path stroke-linecap="round" stroke-linejoin="round" stroke-width="2" d="m16 12.933-1.253 2.187c-.28.48-.053.88.507.88h1.493c.56 0 .787.4.507.88l-1.253 2.187"/>
    </symbol>
    <symbol id="quality" viewBox="0 0 32 32">
      <path stroke-linecap="round" stroke-linejoin="round" stroke-miterlimit="10" stroke-width="2" d="M11.56 18.667H5.333a2.675 2.675 0 0 0-2.667 2.667v8h8.893V18.667z"/>
      <path stroke-linecap="round" stroke-linejoin="round" stroke-miterlimit="10" stroke-width="2" d="M17.773 13.333h-3.56A2.675 2.675 0 0 0 11.546 16v13.333h8.893V16a2.666 2.666 0 0 0-2.667-2.667zM26.667 22.667H20.44v6.667h8.893v-4c0-1.467-1.2-2.667-2.667-2.667z"/>
      <path stroke-linecap="round" stroke-linejoin="round" stroke-width="2" d="m16.693 2.76.707 1.413c.093.2.347.387.56.413l1.28.213c.813.133 1.013.733.427 1.307l-1 1c-.173.173-.267.493-.213.72l.28 1.227c.227.973-.293 1.347-1.147.84l-1.2-.707a.826.826 0 0 0-.787 0l-1.2.707c-.853.507-1.373.133-1.147-.84l.28-1.227c.053-.227-.04-.56-.213-.72l-.987-.987c-.587-.587-.4-1.173.427-1.307l1.28-.213a.89.89 0 0 0 .56-.413l.707-1.413c.387-.773 1-.773 1.387-.013z"/>
    </symbol>

    <symbol id="call" viewBox="0 0 31 32">
      <path stroke-miterlimit="10" stroke-width="1.92" d="M28.122 24.102c0 .461-.102.934-.32 1.395s-.499.896-.87 1.306c-.627.691-1.318 1.19-2.099 1.51-.768.32-1.6.486-2.496.486-1.306 0-2.701-.307-4.173-.934s-2.944-1.472-4.403-2.534a36.8 36.8 0 0 1-4.198-3.584 36.287 36.287 0 0 1-3.571-4.186c-1.05-1.459-1.894-2.918-2.509-4.365-.614-1.459-.922-2.854-.922-4.186 0-.87.154-1.702.461-2.47a5.894 5.894 0 0 1 1.472-2.138c.819-.806 1.715-1.203 2.662-1.203.358 0 .717.077 1.037.23.333.154.627.384.858.717l2.97 4.186c.23.32.397.614.512.896.115.269.179.538.179.781 0 .307-.09.614-.269.909-.166.294-.41.602-.717.909l-.973 1.011a.684.684 0 0 0-.205.512c0 .102.013.192.038.294.038.102.077.179.102.256.23.422.627.973 1.19 1.638a43.15 43.15 0 0 0 1.856 2.022 38.764 38.764 0 0 0 2.035 1.882c.666.563 1.216.947 1.651 1.178.064.026.141.064.23.102a.892.892 0 0 0 .32.051.704.704 0 0 0 .525-.218l.973-.96c.32-.32.627-.563.922-.717.294-.179.589-.269.909-.269.243 0 .499.051.781.166s.576.282.896.499l4.237 3.008c.333.23.563.499.704.819.128.32.205.64.205.998z"/>
    </symbol>
    <symbol id="mail" viewBox="0 0 31 32">
      <path stroke-linecap="round" stroke-linejoin="round" stroke-miterlimit="10" stroke-width="1.92" d="M21.76 26.88H8.96c-3.84 0-6.4-1.92-6.4-6.4v-8.96c0-4.48 2.56-6.4 6.4-6.4h12.8c3.84 0 6.4 1.92 6.4 6.4v8.96c0 4.48-2.56 6.4-6.4 6.4z"/>
      <path stroke-linecap="round" stroke-linejoin="round" stroke-miterlimit="10" stroke-width="1.92" d="m21.76 12.16-4.006 3.2c-1.318 1.05-3.482 1.05-4.8 0l-3.994-3.2"/>
    </symbol>
    <symbol id="map" viewBox="0 0 31 32">
      <path stroke-linecap="round" stroke-linejoin="round" stroke-width="1.92" d="M2.931 10.598v12.454c0 2.432 1.728 3.43 3.827 2.227l3.008-1.715c.653-.371 1.741-.41 2.419-.064l6.72 3.366c.678.333 1.766.307 2.419-.064l5.542-3.174c.704-.41 1.293-1.408 1.293-2.227V8.947c0-2.432-1.728-3.43-3.827-2.227l-3.008 1.715c-.653.371-1.741.41-2.419.064l-6.72-3.354c-.678-.333-1.766-.307-2.419.064L4.224 8.383c-.717.41-1.293 1.408-1.293 2.214zM10.957 5.76V22.4M20.134 9.113v17.126"/>
    </symbol>

    <symbol id="facebook" viewBox="0 0 32 32">
      <path fill="none"  stroke-linecap="round" stroke-miterlimit="10" stroke-width="2" d="M18.667 12.4v3.867h3.467c.267 0 .4.267.4.533l-.533 2.533c0 .133-.267.267-.4.267h-2.933v9.733h-4v-9.6h-2.267c-.267 0-.4-.133-.4-.4V16.8c0-.267.133-.4.4-.4h2.267V12c0-2.267 1.733-4 4-4h3.6c.267 0 .4.133.4.4v3.2c0 .267-.133.4-.4.4h-3.2c-.267 0-.4.133-.4.4z"/>
      <path fill="none" stroke-linecap="round" stroke-linejoin="round" stroke-width="2" d="M20 29.333h-8c-6.667 0-9.333-2.667-9.333-9.333v-8c0-6.667 2.667-9.333 9.333-9.333h8c6.667 0 9.333 2.667 9.333 9.333v8c0 6.667-2.667 9.333-9.333 9.333z"/>
    </symbol>
    <symbol id="instagram" viewBox="0 0 32 32">
      <path fill="none" stroke-linecap="round" stroke-linejoin="round" stroke-width="2" d="M12 29.333h8c6.667 0 9.333-2.667 9.333-9.333v-8c0-6.667-2.667-9.333-9.333-9.333h-8c-6.667 0-9.333 2.667-9.333 9.333v8c0 6.667 2.667 9.333 9.333 9.333z"/>
      <path fill="none" stroke-linecap="round" stroke-linejoin="round" stroke-width="2" d="M16 20.667a4.667 4.667 0 1 0 0-9.334 4.667 4.667 0 0 0 0 9.334z"/>
      <path fill="none" stroke-linecap="round" stroke-linejoin="round" stroke-width="2.667" d="M23.515 9.333h.015"/>
    </symbol>

    <symbol id="logo" viewBox="0 0 55 32">
      <path fill="#173d33" d="M37.919 22.771c-.115-.273-9.583-18.774-9.738-19.029-.327-.772-.812-1.47-1.425-2.049S25.416.665 24.62.376a6.266 6.266 0 0 0-4.925.28 6.159 6.159 0 0 0-1.968 1.55c-.541.645-.942 1.392-1.177 2.197a6.012 6.012 0 0 0 .641 4.822c.115.273 9.177 17.981 9.332 18.236.116.274.251.539.406.793.327.772.812 1.47 1.425 2.049s1.34 1.028 2.136 1.317a6.266 6.266 0 0 0 4.925-.28c.758-.378 1.427-.906 1.968-1.55s.942-1.393 1.177-2.197a6.01 6.01 0 0 0-.641-4.822z" style="fill:var(--color1, #173d33)"/>
      <path fill="#97d28b" d="M26.985 10.252c.58-.61 1.027-1.331 1.312-2.119a6.023 6.023 0 0 0-1.927-6.775C25.711.831 24.949.444 24.131.221S22.458-.057 21.618.06c-.84.117-1.646.404-2.369.842s-1.346 1.019-1.831 1.705c-.204.214-15.577 18.897-15.748 19.139-.58.61-1.027 1.331-1.312 2.119a6.006 6.006 0 0 0 .335 4.851 6.104 6.104 0 0 0 1.592 1.924c.659.527 1.421.914 2.239 1.137s1.673.278 2.513.161c.84-.117 1.646-.404 2.369-.842s1.346-1.019 1.831-1.705c.204-.214 15.577-18.897 15.748-19.138zM53.439 10.252c.58-.61 1.027-1.331 1.312-2.119a6.006 6.006 0 0 0-.335-4.851 6.104 6.104 0 0 0-1.592-1.924C52.165.831 51.403.444 50.585.221S48.912-.057 48.072.06c-.84.117-1.646.404-2.369.842s-1.346 1.019-1.831 1.705c-.204.214-15.577 18.897-15.748 19.138-.58.61-1.027 1.332-1.312 2.119a6.004 6.004 0 0 0 .335 4.851 6.104 6.104 0 0 0 1.592 1.924c.659.527 1.421.914 2.239 1.137s1.673.278 2.513.161c.84-.117 1.646-.404 2.369-.842s1.346-1.019 1.831-1.705c.204-.214 15.577-18.897 15.748-19.139z" style="fill:var(--color2, #97d28b)"/>
    </symbol>
    <symbol id="name" viewBox="0 0 216 32">
      <path d="M12.461 31.269c-6.589 0-11.236-4.646-11.236-10.982S5.871 9.305 12.461 9.305c6.589 0 11.151 4.646 11.151 10.982v1.647H6.04c.634 3.337 3.168 5.153 6.42 5.153 2.45 0 4.224-.718 5.364-2.281h4.942c-1.605 3.928-5.407 6.463-10.307 6.463zM6.167 18.09h12.63c-.803-3.041-3.295-4.604-6.336-4.604-3.126 0-5.491 1.605-6.294 4.604zm29.437 13.179c-6.589 0-11.236-4.646-11.236-10.982S29.014 9.305 35.604 9.305c5.618 0 9.757 3.379 10.813 8.237h-4.604c-.972-2.408-3.21-4.013-6.209-4.013-3.971 0-6.632 2.83-6.632 6.758s2.661 6.758 6.632 6.758c2.999 0 5.238-1.605 6.209-4.013h4.604c-1.056 4.858-5.196 8.237-10.813 8.237zm22.813 0c-6.589 0-11.236-4.646-11.236-10.982S51.827 9.305 58.417 9.305c6.589 0 11.236 4.646 11.236 10.982s-4.646 10.982-11.236 10.982zm0-4.224c3.971 0 6.589-2.83 6.589-6.758s-2.619-6.758-6.589-6.758c-3.971 0-6.632 2.83-6.632 6.758s2.661 6.758 6.632 6.758zm20.775 4.224c-5.28 0-8.617-2.83-8.744-6.674h4.604c.084 1.563 1.478 2.619 4.14 2.619 2.788 0 4.097-1.183 4.097-2.619 0-1.774-1.985-1.985-4.435-2.323-3.379-.422-7.983-1.056-7.983-5.998 0-4.182 3.252-6.97 8.279-6.97s8.152 2.872 8.237 6.505h-4.52c-.127-1.436-1.436-2.45-3.675-2.45-2.408 0-3.717 1.14-3.717 2.577 0 1.774 2.07 1.985 4.435 2.323 3.21.422 7.983 1.014 7.983 5.998 0 4.224-3.421 7.012-8.701 7.012zm20.767 0c-6.589 0-11.236-4.646-11.236-10.982S93.369 9.305 99.959 9.305c6.589 0 11.236 4.646 11.236 10.982s-4.646 10.982-11.236 10.982zm0-4.224c3.971 0 6.589-2.83 6.589-6.758s-2.619-6.758-6.589-6.758c-3.971 0-6.632 2.83-6.632 6.758s2.661 6.758 6.632 6.758zm13.552 3.675V.73h4.562v29.99h-4.562zm18.088.549c-6.168 0-10.307-3.548-10.307-10.56V9.853h4.562v10.856c0 4.224 2.282 6.336 5.745 6.336s5.745-2.112 5.745-6.336V9.853h4.562v10.856c0 6.97-4.14 10.56-10.307 10.56zm21.201 0c-5.027 0-8.448-2.788-8.448-8.532V2.462h4.562v7.392h11.109v4.14h-11.109v8.744c0 3.041 1.563 4.308 3.886 4.308s3.928-1.225 3.928-4.308v-.507h4.52v.507c0 5.745-3.421 8.532-8.448 8.532zm13.075-24.372c-1.774 0-3.084-1.352-3.084-3.126S164.1.645 165.875.645c1.774 0 3.084 1.352 3.084 3.126s-1.309 3.126-3.084 3.126zm-2.323 23.823V9.853h4.562V30.72h-4.562zm18.131.549c-6.589 0-11.236-4.646-11.236-10.982s4.646-10.982 11.236-10.982c6.589 0 11.236 4.646 11.236 10.982s-4.646 10.982-11.236 10.982zm0-4.224c3.971 0 6.589-2.83 6.589-6.758s-2.619-6.758-6.589-6.758c-3.971 0-6.632 2.83-6.632 6.758s2.661 6.758 6.632 6.758zm12.835 3.675V19.864c0-6.97 4.14-10.56 10.307-10.56s10.307 3.548 10.307 10.56V30.72h-4.562V19.864c0-4.224-2.281-6.336-5.745-6.336s-5.745 2.112-5.745 6.336V30.72h-4.562z"/>
    </symbol>
    <symbol id="slogan" viewBox="0 0 105 32">
      <path fill="#97d28b" d="M7.004 14.471c-1.944 0-3.419-.61-4.427-1.831S1.066 9.831 1.066 7.876c0-.901.113-1.736.338-2.507a6.949 6.949 0 0 1 1.031-2.098c.462-.628 1.079-1.12 1.849-1.476s1.653-.533 2.649-.533c1.363 0 2.477.32 3.342.96.865.628 1.458 1.541 1.778 2.738l-1.618.338C9.902 3.603 8.74 2.756 6.951 2.756c-1.339 0-2.382.456-3.129 1.369s-1.12 2.181-1.12 3.804c0 1.636.379 2.898 1.138 3.787.759.877 1.825 1.316 3.2 1.316 1.15 0 2.044-.284 2.684-.853.652-.569.978-1.256.978-2.062V8.784H7.164V7.433h5.084v2.418c0 1.316-.456 2.418-1.369 3.307-.913.877-2.204 1.316-3.876 1.316zm7.555-.249V1.529h4.658c1.339 0 2.388.326 3.147.978.759.64 1.138 1.535 1.138 2.684 0 .924-.255 1.695-.764 2.311-.51.604-1.233 1.001-2.169 1.191l3.093 5.529h-1.884l-2.809-5.298h-2.773v5.298H14.56zm1.635-6.773h2.969c.841 0 1.493-.19 1.956-.569.474-.379.711-.907.711-1.582 0-1.553-.901-2.329-2.702-2.329h-2.933v4.48zm9.615 6.773V1.529h8.569v1.44h-6.933v4.107h5.742v1.44h-5.742v4.267h6.951v1.44h-8.587zm10.748 0V1.529h8.569v1.44h-6.933v4.107h5.742v1.44h-5.742v4.267h6.951v1.44h-8.587zm10.747 0V1.529h1.973l5.831 8.693.96 1.529h.178l-.018-2.436V1.528h1.582v12.693h-1.884L50.29 5.883l-1.227-1.884h-.16l.018 2.418v7.804h-1.618z" style="fill:var(--color2, #97d28b)"/>
      <path fill="#173d33" d="M60.881 14.222V1.529h8.569v1.44h-6.933v4.107h5.742v1.44h-5.742v4.267h6.951v1.44h-8.587zm10.747 0V1.529h4.658c1.339 0 2.388.326 3.147.978.758.64 1.138 1.535 1.138 2.684 0 .924-.255 1.695-.764 2.311-.51.604-1.233 1.001-2.169 1.191l3.093 5.529h-1.884l-2.809-5.298h-2.773v5.298h-1.636zm1.636-6.773h2.969c.841 0 1.493-.19 1.956-.569.474-.379.711-.907.711-1.582 0-1.553-.901-2.329-2.702-2.329h-2.933v4.48zm14.735 7.022c-1.944 0-3.419-.61-4.427-1.831s-1.511-2.809-1.511-4.764c0-.901.113-1.736.338-2.507a6.949 6.949 0 0 1 1.031-2.098c.462-.628 1.078-1.12 1.849-1.476s1.653-.533 2.649-.533c1.363 0 2.477.32 3.342.96.865.628 1.458 1.541 1.778 2.738l-1.618.338c-.533-1.695-1.695-2.542-3.484-2.542-1.339 0-2.382.456-3.129 1.369s-1.12 2.181-1.12 3.804c0 1.636.379 2.898 1.138 3.787.758.877 1.825 1.316 3.2 1.316 1.15 0 2.044-.284 2.684-.853.652-.569.978-1.256.978-2.062V8.784h-3.538V7.433h5.084v2.418c0 1.316-.456 2.418-1.369 3.307-.913.877-2.204 1.316-3.876 1.316zm10.46-.249V9.724L93.89 1.528h1.902l3.467 6.596 3.484-6.596h1.884l-4.533 8.196v4.498h-1.636zm-96.575 16V17.529h8.32v1.44H3.52v4.409h5.547v1.458H3.52v5.387H1.884zm15.105.249c-1.884 0-3.36-.634-4.427-1.902-1.055-1.268-1.582-2.839-1.582-4.711s.539-3.437 1.618-4.693c1.09-1.268 2.554-1.902 4.391-1.902s3.301.634 4.391 1.902c1.09 1.268 1.636 2.833 1.636 4.693 0 1.873-.533 3.443-1.6 4.711-1.055 1.268-2.53 1.902-4.427 1.902zm0-1.458c1.327 0 2.382-.468 3.164-1.404.794-.936 1.191-2.187 1.191-3.751 0-1.553-.397-2.797-1.191-3.733-.794-.96-1.849-1.44-3.164-1.44-1.292 0-2.341.48-3.147 1.44-.794.936-1.191 2.181-1.191 3.733 0 1.564.391 2.815 1.173 3.751.794.936 1.849 1.404 3.164 1.404zm8.23 1.209V17.529h4.658c1.339 0 2.388.326 3.147.978.758.64 1.138 1.535 1.138 2.684 0 .924-.255 1.695-.764 2.311-.51.604-1.233 1.001-2.169 1.191l3.093 5.529h-1.884l-2.809-5.298h-2.773v5.298H25.22zm1.636-6.773h2.969c.841 0 1.493-.19 1.956-.569.474-.379.711-.907.711-1.582 0-1.553-.901-2.329-2.702-2.329h-2.933v4.48zm13.695 6.773V17.529h1.636v11.236h6.667v1.458h-8.302zm9.984 0V17.529h1.636v12.693h-1.636zm4.705 0V17.529h8.32v1.44h-6.684v4.409h5.547v1.458h-5.547v5.387h-1.636zm10.123 0V17.529h8.569v1.44h-6.933v4.107h5.742v1.44h-5.742v4.267h6.951v1.44h-8.587z" style="fill:var(--color1, #173d33)"/>
    </symbol>
  </defs>
</svg>